<svg xmlns="http://www.w3.org/2000/svg" fill="none" viewBox="0 0 40 40" height="40" width="40">
  
  <rect fill="#111111" rx="8" height="40" width="40"></rect>
  
  
  <path fill="none" stroke-linejoin="round" stroke-linecap="round" stroke-width="2.5" stroke="#EDE0C8" d="M12 28C12 28 14 18 20 18C26 18 28 28 28 28"></path>
  
  
  <path fill="none" stroke-linejoin="round" stroke-linecap="round" stroke-width="2.5" stroke="#EDE0C8" d="M10 14C10 14 11 10 15 10C17 10 18 12 18 12"></path>
  
  
  <path stroke-linecap="round" stroke-width="2.5" stroke="#EDE0C8" d="M20 18V12"></path>
  
  
  <circle fill="#EDE0C8" r="1.8" cy="26" cx="15"></circle>
  <circle fill="#EDE0C8" r="1.8" cy="26" cx="25"></circle>
  
  
  
  <path stroke-linecap="round" stroke-linejoin="round" stroke-width="1.8" stroke="#EDE0C8" fill="none" d="M24 20 L29 20 L32 28 L29 30 L23 30 L22 23"></path>
  
  
  <circle fill="#EDE0C8" r="1.2" cy="31" cx="25"></circle>
  <circle fill="#EDE0C8" r="1.2" cy="31" cx="30.5"></circle>
  
  
  <path stroke-linecap="round" stroke-width="1.6" stroke="#EDE0C8" d="M29 20 L29 27"></path>
  
  
  <path stroke-linecap="round" stroke-width="1" stroke="#EDE0C8" d="M25 22 L28 22"></path>
  <path stroke-linecap="round" stroke-width="1" stroke="#EDE0C8" d="M24.5 24 L28.5 24"></path>
</svg>
